<?xml version="1.0" encoding="UTF-8"?>
<svg xmlns="http://www.w3.org/2000/svg" viewBox="0 0 512 512" width="512" height="512">
  <rect width="512" height="512" rx="112" fill="#1a3db8"/>
  <rect x="20" y="20" width="472" height="472" rx="96" fill="#2d5be3"/>
  <rect x="100" y="340" width="60" height="110" rx="8" fill="#ffffff" opacity="0.3"/>
  <rect x="180" y="270" width="60" height="180" rx="8" fill="#ffffff" opacity="0.5"/>
  <rect x="260" y="195" width="60" height="255" rx="8" fill="#ffffff" opacity="0.7"/>
  <rect x="340" y="130" width="60" height="320" rx="8" fill="#ffffff" opacity="0.9"/>
  <polyline points="130,332 210,262 290,188 370,122" fill="none" stroke="#93c5fd" stroke-width="10" stroke-linecap="round" stroke-linejoin="round"/>
  <circle cx="130" cy="332" r="11" fill="#ffffff"/>
  <circle cx="210" cy="262" r="11" fill="#ffffff"/>
  <circle cx="290" cy="188" r="11" fill="#ffffff"/>
  <circle cx="370" cy="122" r="13" fill="#ffffff"/>
  <polygon points="256,55 188,112 198,112 198,155 228,155 228,132 284,132 284,155 314,155 314,112 324,112" fill="#ffffff"/>
  <line x1="85" y1="458" x2="428" y2="458" stroke="#ffffff" stroke-width="5" stroke-linecap="round" opacity="0.35"/>
</svg>
